<?xml version="1.0" encoding="UTF-8"?>
<svg xmlns="http://www.w3.org/2000/svg" xmlns:xlink="http://www.w3.org/1999/xlink" width="300pt" height="232pt" viewBox="0 0 300 232" version="1.1">
<g id="surface1">
<path style=" stroke:none;fill-rule:nonzero;fill:rgb(3.137207%,41.175842%,44.7052%);fill-opacity:1;" d="M 135.832031 73.726562 C 133.664062 72.105469 131.5 70.296875 129.691406 68.132812 C 125.359375 72.464844 120.667969 76.4375 115.433594 79.683594 L 110.738281 71.742188 C 115.613281 68.492188 119.945312 64.882812 124.097656 60.730469 C 120.308594 54.773438 117.597656 48.097656 115.976562 41.054688 L 118.5 40.515625 L 109.476562 40.515625 C 109.476562 37.085938 109.476562 33.835938 109.476562 30.40625 L 124.640625 30.40625 L 124.640625 26.253906 C 127.707031 26.253906 130.777344 26.253906 133.84375 26.253906 L 133.84375 30.40625 L 148.828125 30.40625 L 148.828125 40.515625 L 145.757812 40.515625 C 145.035156 45.570312 143.050781 50.441406 140.523438 54.773438 C 140.703125 54.773438 141.066406 54.773438 141.425781 54.773438 L 159.835938 54.773438 L 159.835938 19.394531 L 96.480469 19.394531 L 96.480469 86.003906 L 135.832031 86.003906 Z M 137.996094 88.347656 L 96.480469 88.347656 C 95.214844 88.347656 94.3125 87.265625 94.3125 86.003906 L 94.3125 19.394531 C 94.3125 18.132812 95.214844 17.050781 96.480469 17.050781 L 159.835938 17.050781 C 161.101562 17.050781 162.003906 18.132812 162.003906 19.394531 L 162.003906 57.121094 L 141.425781 57.121094 C 139.441406 57.121094 137.996094 58.566406 137.996094 60.550781 C 137.996094 62.535156 137.996094 64.703125 137.996094 66.867188 C 136.191406 65.0625 134.566406 63.4375 132.941406 61.453125 C 138.71875 54.234375 142.871094 47.554688 143.773438 38.167969 L 146.660156 38.167969 L 146.660156 32.753906 L 131.679688 32.753906 L 131.679688 28.601562 L 126.804688 28.601562 L 126.804688 32.753906 L 111.824219 32.753906 L 111.824219 38.167969 L 139.261719 38.167969 C 138.175781 46.292969 135.109375 51.34375 130.054688 57.484375 C 126.984375 52.429688 124.640625 47.554688 123.015625 41.597656 L 118.5 42.863281 C 120.308594 49.179688 123.375 55.675781 126.984375 61.09375 C 123.015625 65.246094 118.5 69.214844 113.808594 72.464844 L 116.15625 76.4375 C 121.210938 73.007812 125.542969 69.214844 129.875 64.882812 C 132.402344 67.953125 134.746094 70.296875 137.996094 72.464844 Z M 125 40.515625 C 125.902344 44.847656 128.070312 49.539062 130.414062 53.511719 C 133.121094 49.722656 135.648438 45.207031 136.550781 40.515625 Z M 125 40.515625 "/>
<path style=" stroke:none;fill-rule:nonzero;fill:rgb(3.137207%,41.175842%,44.7052%);fill-opacity:1;" d="M 173.015625 78.601562 L 174.097656 78.601562 L 174.277344 79.324219 L 174.457031 80.226562 C 175 82.390625 175.542969 85.101562 176.261719 87.265625 L 178.789062 96.109375 L 179.152344 97.554688 L 167.238281 97.554688 L 167.597656 96.109375 L 170.125 87.265625 C 170.488281 85.820312 170.847656 84.199219 171.210938 82.574219 C 171.390625 81.488281 171.75 80.226562 171.929688 79.324219 L 172.113281 78.601562 Z M 173.195312 84.199219 C 172.832031 85.460938 172.472656 86.722656 172.292969 87.808594 L 170.125 95.207031 L 176.261719 95.207031 L 174.097656 87.988281 C 173.738281 86.722656 173.375 85.460938 173.195312 84.199219 Z M 173.195312 84.199219 "/>
<path style=" stroke:none;fill-rule:nonzero;fill:rgb(3.137207%,41.175842%,44.7052%);fill-opacity:1;" d="M 205.324219 61.09375 L 141.785156 61.09375 L 141.785156 125.53125 L 205.324219 125.53125 Z M 141.785156 58.746094 L 205.324219 58.746094 C 206.40625 58.746094 207.492188 59.828125 207.492188 61.09375 L 207.492188 125.53125 C 207.492188 126.796875 206.40625 127.699219 205.324219 127.699219 L 141.785156 127.699219 C 140.703125 127.699219 139.621094 126.796875 139.621094 125.53125 L 139.621094 61.09375 C 139.621094 59.828125 140.523438 58.746094 141.785156 58.746094 Z M 178.25 104.414062 L 168.320312 104.414062 L 165.433594 115.0625 C 161.460938 115.0625 157.492188 115.0625 153.519531 115.0625 L 166.695312 71.5625 L 180.234375 71.5625 L 193.59375 115.0625 C 189.441406 115.0625 185.46875 115.0625 181.316406 115.0625 Z M 182.941406 112.71875 L 190.523438 112.71875 L 178.609375 73.726562 L 168.320312 73.726562 L 156.589844 112.71875 L 163.628906 112.71875 L 166.515625 102.246094 C 171.027344 102.246094 175.542969 102.246094 179.875 102.246094 Z M 182.941406 112.71875 "/>
<path style=" stroke:none;fill-rule:nonzero;fill:rgb(3.137207%,41.175842%,44.7052%);fill-opacity:1;" d="M 171.390625 140.695312 C 170.667969 140.875 170.125 141.238281 169.40625 141.238281 C 151.714844 146.292969 132.039062 144.484375 114.710938 134.738281 C 98.105469 125.351562 86.550781 110.191406 81.316406 93.222656 L 75 94.484375 L 77.167969 84.378906 L 79.511719 74.269531 L 91.425781 91.238281 L 84.566406 92.5 C 89.621094 108.566406 100.632812 122.824219 116.335938 131.851562 C 132.402344 140.875 150.632812 142.679688 167.058594 138.347656 Z M 171.390625 140.695312 "/>
<path style=" stroke:none;fill-rule:nonzero;fill:rgb(3.137207%,41.175842%,44.7052%);fill-opacity:1;" d="M 185.289062 9.289062 C 201.894531 18.492188 213.265625 33.292969 218.683594 49.902344 L 225 47.734375 L 224.097656 58.203125 L 223.015625 68.492188 L 216.15625 60.730469 L 209.117188 53.152344 L 215.433594 50.984375 C 210.378906 35.101562 199.367188 21.019531 183.664062 12.175781 C 167.597656 3.152344 149.546875 1.34375 132.941406 5.496094 L 128.789062 3.152344 C 129.332031 2.96875 130.054688 2.789062 130.59375 2.609375 C 148.464844 -2.265625 167.960938 -0.460938 185.289062 9.289062 Z M 185.289062 9.289062 "/>
<path style=" stroke:none;fill-rule:nonzero;fill:rgb(3.137207%,41.175842%,44.7052%);fill-opacity:1;" d="M 38.265625 188.105469 C 38.265625 177.328125 32.269531 169.484375 22.320312 169.484375 C 12.371094 169.484375 6.378906 177.328125 6.378906 188.105469 C 6.378906 198.886719 12.371094 206.730469 22.320312 206.730469 C 32.269531 206.730469 38.265625 198.886719 38.265625 188.105469 Z M 44.644531 188.105469 C 44.644531 197.992188 39.414062 212.214844 22.320312 212.214844 C 5.230469 212.214844 0 197.992188 0 188.105469 C 0 178.222656 5.230469 164 22.320312 164 C 39.414062 164 44.644531 178.222656 44.644531 188.105469 Z M 58.800781 170.503906 L 58.800781 186.386719 L 71.109375 186.386719 C 76.65625 186.386719 80.421875 184.34375 80.421875 178.15625 C 80.421875 172.355469 76.46875 170.503906 71.363281 170.503906 Z M 58.800781 191.679688 L 58.800781 211.003906 L 52.613281 211.003906 L 52.613281 165.210938 L 73.214844 165.210938 C 81.695312 165.210938 86.796875 170.695312 86.796875 178.09375 C 86.796875 184.472656 83.164062 191.679688 73.214844 191.679688 Z M 124.554688 165.210938 L 130.738281 165.210938 L 130.738281 194.929688 C 130.738281 204.304688 124.871094 212.214844 112.308594 212.214844 C 100 212.214844 94.707031 204.304688 94.707031 195.761719 L 94.707031 165.210938 L 100.894531 165.210938 L 100.894531 194.039062 C 100.894531 203.988281 106.953125 206.730469 112.5 206.730469 C 118.175781 206.730469 124.554688 204.113281 124.554688 194.164062 Z M 173.980469 178.605469 L 168.175781 178.605469 C 167.855469 171.527344 161.988281 169.292969 156.824219 169.292969 C 152.933594 169.292969 146.363281 170.378906 146.363281 177.328125 C 146.363281 181.21875 149.105469 182.496094 151.785156 183.132812 L 164.859375 186.128906 C 170.789062 187.53125 175.253906 191.105469 175.253906 198.375 C 175.253906 209.21875 165.179688 212.214844 157.335938 212.214844 C 148.851562 212.214844 145.535156 209.664062 143.496094 207.8125 C 139.605469 204.304688 138.839844 200.480469 138.839844 196.207031 L 144.644531 196.207031 C 144.644531 204.496094 151.402344 206.921875 157.269531 206.921875 C 161.734375 206.921875 169.261719 205.773438 169.261719 199.203125 C 169.261719 194.421875 167.027344 192.890625 159.503906 191.105469 L 150.128906 188.9375 C 147.128906 188.234375 140.371094 186.128906 140.371094 178.15625 C 140.371094 171.015625 145.027344 164 156.121094 164 C 172.128906 164 173.722656 173.566406 173.980469 178.605469 Z M 196.683594 190.46875 L 196.683594 196.207031 L 181.058594 196.207031 L 181.058594 190.46875 Z M 222.386719 166.167969 L 222.386719 211.003906 L 216.390625 211.003906 L 216.390625 179.179688 L 205.929688 179.179688 L 205.929688 174.714844 C 213.203125 174.203125 216.199219 173.503906 217.984375 166.167969 Z M 258.546875 189.191406 C 258.546875 177.96875 255.613281 171.207031 249.171875 171.207031 C 242.730469 171.207031 239.796875 177.96875 239.796875 189.191406 C 239.796875 200.414062 242.730469 207.175781 249.171875 207.175781 C 255.613281 207.175781 258.546875 200.414062 258.546875 189.191406 Z M 264.539062 189.191406 C 264.539062 198.503906 262.054688 212.214844 249.171875 212.214844 C 236.289062 212.214844 233.800781 198.503906 233.800781 189.191406 C 233.800781 179.878906 236.289062 166.167969 249.171875 166.167969 C 262.054688 166.167969 264.539062 179.878906 264.539062 189.191406 Z M 294.003906 189.191406 C 294.003906 177.96875 291.070312 171.207031 284.628906 171.207031 C 278.1875 171.207031 275.253906 177.96875 275.253906 189.191406 C 275.253906 200.414062 278.1875 207.175781 284.628906 207.175781 C 291.070312 207.175781 294.003906 200.414062 294.003906 189.191406 Z M 300 189.191406 C 300 198.503906 297.511719 212.214844 284.628906 212.214844 C 271.746094 212.214844 269.261719 198.503906 269.261719 189.191406 C 269.261719 179.878906 271.746094 166.167969 284.628906 166.167969 C 297.511719 166.167969 300 179.878906 300 189.191406 Z M 300 189.191406 "/>
<path style=" stroke:none;fill-rule:nonzero;fill:rgb(3.137207%,41.175842%,44.7052%);fill-opacity:1;" d="M 4.421875 226.519531 L 4.421875 231.964844 L 2 231.964844 L 2 222.082031 L 4.421875 222.082031 L 7.507812 227.539062 L 10.589844 222.082031 L 13.011719 222.082031 L 13.011719 231.964844 L 10.589844 231.964844 L 10.589844 226.519531 L 8.71875 229.734375 L 6.296875 229.734375 Z M 20.988281 229.960938 L 17.355469 229.960938 L 16.644531 231.964844 L 14.015625 231.964844 L 17.96875 222.082031 L 20.390625 222.082031 L 24.347656 231.964844 L 21.699219 231.964844 Z M 18.148438 227.714844 L 20.199219 227.714844 L 19.179688 224.84375 Z M 24.847656 231.722656 L 24.847656 229.445312 C 25.042969 229.492188 25.285156 229.539062 25.558594 229.574219 C 25.832031 229.621094 26.125 229.652344 26.429688 229.671875 C 26.738281 229.6875 27.042969 229.703125 27.367188 229.71875 C 27.691406 229.734375 27.996094 229.75 28.273438 229.75 C 29.03125 229.75 29.5625 229.703125 29.886719 229.621094 C 30.195312 229.539062 30.355469 229.394531 30.355469 229.167969 C 30.355469 228.976562 30.210938 228.832031 30.0625 228.71875 C 29.53125 228.363281 28.902344 228.214844 28.273438 228.070312 C 26.496094 227.714844 24.863281 227.003906 24.863281 224.972656 C 24.863281 222.566406 27.140625 222 29.09375 222 C 30.175781 222 31.277344 222.113281 32.324219 222.371094 L 32.324219 224.648438 C 32.164062 224.601562 31.953125 224.566406 31.695312 224.519531 C 31.421875 224.488281 31.144531 224.453125 30.839844 224.421875 C 30.210938 224.359375 29.613281 224.324219 28.984375 224.324219 C 28.628906 224.324219 27.882812 224.324219 27.546875 224.453125 C 27.320312 224.535156 27.175781 224.632812 27.175781 224.890625 C 27.175781 225.019531 27.207031 225.132812 27.269531 225.230469 C 27.335938 225.34375 27.449219 225.421875 27.59375 225.503906 C 28.03125 225.746094 28.59375 225.890625 29.078125 226.003906 C 29.484375 226.101562 29.886719 226.214844 30.304688 226.328125 C 31.726562 226.714844 32.664062 227.507812 32.664062 229.023438 C 32.664062 231.527344 30.175781 232.058594 28.175781 232.058594 C 27.078125 232.058594 25.929688 231.980469 24.847656 231.722656 Z M 33.519531 231.722656 L 33.519531 229.445312 C 33.714844 229.492188 33.957031 229.539062 34.230469 229.574219 C 34.503906 229.621094 34.796875 229.652344 35.101562 229.671875 C 35.410156 229.6875 35.714844 229.703125 36.039062 229.71875 C 36.363281 229.734375 36.667969 229.75 36.941406 229.75 C 37.703125 229.75 38.234375 229.703125 38.558594 229.621094 C 38.863281 229.539062 39.027344 229.394531 39.027344 229.167969 C 39.027344 228.976562 38.882812 228.832031 38.734375 228.71875 C 38.203125 228.363281 37.574219 228.214844 36.941406 228.070312 C 35.167969 227.714844 33.535156 227.003906 33.535156 224.972656 C 33.535156 222.566406 35.8125 222 37.765625 222 C 38.847656 222 39.945312 222.113281 40.996094 222.371094 L 40.996094 224.648438 C 40.835938 224.601562 40.625 224.566406 40.367188 224.519531 C 40.09375 224.488281 39.816406 224.453125 39.511719 224.421875 C 38.882812 224.359375 38.285156 224.324219 37.652344 224.324219 C 37.296875 224.324219 36.554688 224.324219 36.214844 224.453125 C 35.992188 224.535156 35.84375 224.632812 35.84375 224.890625 C 35.84375 225.019531 35.878906 225.132812 35.941406 225.230469 C 36.007812 225.34375 36.121094 225.421875 36.265625 225.503906 C 36.699219 225.746094 37.265625 225.890625 37.75 226.003906 C 38.152344 226.101562 38.558594 226.214844 38.976562 226.328125 C 40.398438 226.714844 41.335938 227.507812 41.335938 229.023438 C 41.335938 231.527344 38.847656 232.058594 36.847656 232.058594 C 35.75 232.058594 34.601562 231.980469 33.519531 231.722656 Z M 42.660156 222.082031 L 45.082031 222.082031 L 45.082031 231.964844 L 42.660156 231.964844 Z M 53.738281 222.082031 L 56.386719 222.082031 L 52.429688 231.964844 L 50.007812 231.964844 L 46.050781 222.082031 L 48.683594 222.082031 L 51.21875 229.203125 Z M 57.417969 222.082031 L 64.765625 222.082031 L 64.765625 224.324219 L 59.839844 224.324219 L 59.839844 225.90625 L 63.796875 225.90625 L 63.796875 228.152344 L 59.839844 228.152344 L 59.839844 229.71875 L 64.765625 229.71875 L 64.765625 231.964844 L 57.417969 231.964844 Z M 73.484375 229.71875 L 73.484375 231.964844 L 66.136719 231.964844 L 66.136719 222.082031 L 68.558594 222.082031 L 68.558594 229.71875 Z M 77.34375 231.964844 L 77.34375 228.296875 C 75.390625 227.863281 74.261719 226.246094 74.261719 224.308594 L 74.261719 222.082031 L 76.683594 222.082031 L 76.683594 224.308594 C 76.683594 225.472656 77.375 226.183594 78.539062 226.183594 C 79.734375 226.183594 80.394531 225.488281 80.394531 224.308594 L 80.394531 222.082031 L 82.816406 222.082031 L 82.816406 224.308594 C 82.816406 226.277344 81.671875 227.84375 79.765625 228.296875 L 79.765625 231.964844 Z M 90.164062 226.519531 L 90.164062 231.964844 L 87.742188 231.964844 L 87.742188 222.082031 L 90.164062 222.082031 L 93.25 227.539062 L 96.332031 222.082031 L 98.757812 222.082031 L 98.757812 231.964844 L 96.332031 231.964844 L 96.332031 226.519531 L 94.460938 229.734375 L 92.039062 229.734375 Z M 106.621094 222.082031 L 109.042969 222.082031 L 109.042969 227.925781 C 109.042969 230.492188 107.199219 232.042969 104.761719 232.042969 C 102.261719 232.042969 100.484375 230.398438 100.484375 227.925781 L 100.484375 222.082031 L 102.90625 222.082031 L 102.90625 227.925781 C 102.90625 229.089844 103.601562 229.800781 104.761719 229.800781 C 105.957031 229.800781 106.621094 229.105469 106.621094 227.925781 Z M 118.085938 229.71875 L 118.085938 231.964844 L 110.738281 231.964844 L 110.738281 222.082031 L 113.160156 222.082031 L 113.160156 229.71875 Z M 118.730469 222.082031 L 126.964844 222.082031 L 126.964844 224.324219 L 124.058594 224.324219 L 124.058594 231.964844 L 121.636719 231.964844 L 121.636719 224.324219 L 118.730469 224.324219 Z M 128.160156 222.082031 L 130.582031 222.082031 L 130.582031 231.964844 L 128.160156 231.964844 Z M 139.753906 229.71875 L 139.753906 231.964844 L 132.40625 231.964844 L 132.40625 222.082031 L 134.828125 222.082031 L 134.828125 229.71875 Z M 140.964844 222.082031 L 143.386719 222.082031 L 143.386719 231.964844 L 140.964844 231.964844 Z M 151.511719 222.082031 L 153.933594 222.082031 L 153.933594 231.964844 L 151.511719 231.964844 L 147.632812 226.183594 L 147.632812 231.964844 L 145.210938 231.964844 L 145.210938 222.082031 L 147.632812 222.082031 L 151.511719 227.863281 Z M 164.523438 225.90625 L 164.523438 231.398438 C 163.378906 231.832031 161.941406 232.074219 160.714844 232.074219 C 157.566406 232.074219 155.449219 230.1875 155.449219 227.070312 C 155.449219 223.664062 157.984375 222 161.085938 222 C 161.296875 222 161.519531 222 161.78125 222.015625 C 162.023438 222.03125 162.28125 222.066406 162.554688 222.082031 C 163.054688 222.144531 163.554688 222.210938 164.039062 222.355469 L 164.039062 224.824219 C 163.863281 224.746094 163.667969 224.679688 163.441406 224.617188 C 163.199219 224.566406 162.957031 224.519531 162.699219 224.46875 C 162.183594 224.375 161.632812 224.339844 161.101562 224.339844 C 159.050781 224.339844 157.871094 224.972656 157.871094 227.070312 C 157.871094 229.121094 158.953125 229.734375 160.792969 229.734375 C 160.988281 229.734375 161.199219 229.71875 161.425781 229.703125 C 161.632812 229.6875 161.859375 229.671875 162.101562 229.652344 L 162.101562 228.152344 L 160.003906 228.152344 L 160.003906 225.90625 Z M 172.066406 222.082031 L 174.488281 222.082031 L 174.488281 227.925781 C 174.488281 230.492188 172.648438 232.042969 170.207031 232.042969 C 167.707031 232.042969 165.929688 230.398438 165.929688 227.925781 L 165.929688 222.082031 L 168.351562 222.082031 L 168.351562 227.925781 C 168.351562 229.089844 169.046875 229.800781 170.207031 229.800781 C 171.402344 229.800781 172.066406 229.105469 172.066406 227.925781 Z M 182.011719 229.960938 L 178.378906 229.960938 L 177.667969 231.964844 L 175.035156 231.964844 L 178.992188 222.082031 L 181.414062 222.082031 L 185.371094 231.964844 L 182.722656 231.964844 Z M 179.171875 227.714844 L 181.222656 227.714844 L 180.203125 224.84375 Z M 193.703125 229.71875 L 193.703125 231.964844 L 186.355469 231.964844 L 186.355469 222.082031 L 188.777344 222.082031 L 188.777344 229.71875 Z M 197.902344 222.082031 L 206.136719 222.082031 L 206.136719 224.324219 L 203.230469 224.324219 L 203.230469 231.964844 L 200.808594 231.964844 L 200.808594 224.324219 L 197.902344 224.324219 Z M 209.820312 224.359375 L 209.820312 226.714844 L 212.078125 226.714844 C 212.820312 226.714844 213.257812 226.277344 213.257812 225.535156 C 213.257812 224.792969 212.820312 224.359375 212.078125 224.359375 Z M 213.484375 228.3125 C 213.9375 228.925781 214.386719 229.539062 214.855469 230.136719 C 215.308594 230.734375 215.761719 231.347656 216.210938 231.964844 L 213.257812 231.964844 C 212.675781 231.1875 212.113281 230.414062 211.546875 229.636719 C 210.980469 228.878906 210.398438 228.105469 209.820312 227.328125 L 209.820312 231.964844 L 207.394531 231.964844 L 207.394531 222.082031 L 212.078125 222.082031 C 213.917969 222.082031 215.484375 223.484375 215.484375 225.34375 C 215.484375 226.652344 214.679688 227.796875 213.484375 228.3125 Z M 223.351562 229.960938 L 219.71875 229.960938 L 219.007812 231.964844 L 216.375 231.964844 L 220.332031 222.082031 L 222.753906 222.082031 L 226.707031 231.964844 L 224.0625 231.964844 Z M 220.507812 227.714844 L 222.558594 227.714844 L 221.542969 224.84375 Z M 233.992188 222.082031 L 236.414062 222.082031 L 236.414062 231.964844 L 233.992188 231.964844 L 230.117188 226.183594 L 230.117188 231.964844 L 227.695312 231.964844 L 227.695312 222.082031 L 230.117188 222.082031 L 233.992188 227.863281 Z M 237.785156 231.722656 L 237.785156 229.445312 C 237.980469 229.492188 238.222656 229.539062 238.496094 229.574219 C 238.769531 229.621094 239.0625 229.652344 239.367188 229.671875 C 239.675781 229.6875 239.980469 229.703125 240.304688 229.71875 C 240.628906 229.734375 240.933594 229.75 241.210938 229.75 C 241.96875 229.75 242.5 229.703125 242.824219 229.621094 C 243.128906 229.539062 243.292969 229.394531 243.292969 229.167969 C 243.292969 228.976562 243.148438 228.832031 243 228.71875 C 242.46875 228.363281 241.839844 228.214844 241.210938 228.070312 C 239.433594 227.714844 237.800781 227.003906 237.800781 224.972656 C 237.800781 222.566406 240.078125 222 242.03125 222 C 243.113281 222 244.210938 222.113281 245.261719 222.371094 L 245.261719 224.648438 C 245.101562 224.601562 244.890625 224.566406 244.632812 224.519531 C 244.359375 224.488281 244.082031 224.453125 243.777344 224.421875 C 243.148438 224.359375 242.550781 224.324219 241.917969 224.324219 C 241.566406 224.324219 240.820312 224.324219 240.484375 224.453125 C 240.257812 224.535156 240.109375 224.632812 240.109375 224.890625 C 240.109375 225.019531 240.144531 225.132812 240.207031 225.230469 C 240.273438 225.34375 240.386719 225.421875 240.53125 225.503906 C 240.96875 225.746094 241.53125 225.890625 242.015625 226.003906 C 242.421875 226.101562 242.824219 226.214844 243.242188 226.328125 C 244.664062 226.714844 245.601562 227.507812 245.601562 229.023438 C 245.601562 231.527344 243.113281 232.058594 241.113281 232.058594 C 240.015625 232.058594 238.867188 231.980469 237.785156 231.722656 Z M 254.289062 229.71875 L 254.289062 231.964844 L 246.941406 231.964844 L 246.941406 222.082031 L 249.363281 222.082031 L 249.363281 229.71875 Z M 261.636719 229.960938 L 258.003906 229.960938 L 257.292969 231.964844 L 254.660156 231.964844 L 258.617188 222.082031 L 261.039062 222.082031 L 264.996094 231.964844 L 262.347656 231.964844 Z M 258.792969 227.714844 L 260.84375 227.714844 L 259.828125 224.84375 Z M 264.269531 222.082031 L 272.503906 222.082031 L 272.503906 224.324219 L 269.597656 224.324219 L 269.597656 231.964844 L 267.175781 231.964844 L 267.175781 224.324219 L 264.269531 224.324219 Z M 273.699219 222.082031 L 276.121094 222.082031 L 276.121094 231.964844 L 273.699219 231.964844 Z M 282.691406 229.800781 C 284.453125 229.800781 285.355469 228.667969 285.355469 227.023438 C 285.355469 225.277344 284.386719 224.246094 282.691406 224.246094 C 280.914062 224.246094 280.027344 225.375 280.027344 227.023438 C 280.027344 228.734375 281.011719 229.800781 282.691406 229.800781 Z M 282.691406 232.042969 C 279.65625 232.042969 277.605469 229.976562 277.605469 227.023438 C 277.605469 223.96875 279.753906 222 282.691406 222 C 285.742188 222 287.777344 224.050781 287.777344 227.023438 C 287.777344 230.089844 285.648438 232.042969 282.691406 232.042969 Z M 295.578125 222.082031 L 298 222.082031 L 298 231.964844 L 295.578125 231.964844 L 291.703125 226.183594 L 291.703125 231.964844 L 289.28125 231.964844 L 289.28125 222.082031 L 291.703125 222.082031 L 295.578125 227.863281 Z M 295.578125 222.082031 "/>
</g>
</svg>
